{"glyphs":{":":{"x_min":0,"x_max":354,"ha":354,"o":"m 235 406 l 119 406 l 119 545 l 235 545 z m 235 0 l 119 0 l 119 139 l 235 139 z"},"$":{"x_min":0,"x_max":546,"ha":546,"o":"m 500 186 q 500 114 445 62 q 390 11 307 0 l 307 -176 l 251 -176 l 251 -2 q 198 -1 145 10 q 91 22 52 42 l 52 140 l 59 140 q 98 111 146 93 q 194 75 251 70 l 251 281 q 239 284 221 288 q 204 292 191 296 q 118 316 87 357 q 55 397 55 457 q 55 526 109 577 q 164 628 251 637 l 251 770 l 307 770 l 307 638 q 351 636 399 625 q 446 614 477 601 l 477 504 l 469 504 q 435 528 394 545 q 354 563 307 567 l 307 357 q 323 354 337 350 q 351 346 361 344 q 427 328 464 290 q 500 251 500 186 z m 251 364 l 251 566 q 207 562 177 538 q 147 513 147 469 q 147 426 169 402 q 191 378 251 364 z m 408 173 q 408 219 384 241 q 361 263 307 274 l 307 71 q 356 77 382 101 q 408 125 408 173 z"},"?":{"x_min":0,"x_max":474,"ha":474,"o":"m 445 556 q 445 508 429 471 q 414 434 387 405 q 361 377 327 353 q 294 329 257 307 l 257 195 l 169 195 l 169 344 q 197 361 233 384 q 270 407 290 427 q 316 452 331 482 q 346 511 346 549 q 346 604 311 631 q 276 658 221 658 q 172 658 129 642 q 85 625 59 608 l 53 608 l 53 708 q 86 721 136 731 q 186 742 230 742 q 330 742 388 691 q 445 640 445 556 z m 265 0 l 165 0 l 165 103 l 265 103 z"},"<":{"x_min":0,"x_max":728,"ha":728,"o":"m 623 39 l 98 289 l 98 348 l 623 598 l 623 511 l 216 318 l 623 125 z"},"'":{"x_min":0,"x_max":211,"ha":211,"o":"m 160 760 l 139 477 l 72 477 l 51 760 z"},"=":{"x_min":0,"x_max":728,"ha":728,"o":"m 634 382 l 94 382 l 94 460 l 634 460 z m 634 177 l 94 177 l 94 255 l 634 255 z"},"a":{"x_min":0,"x_max":525,"ha":525,"o":"m 371 134 l 371 286 q 338 283 288 278 q 238 272 208 263 q 171 252 147 229 q 123 206 123 164 q 123 117 149 93 q 176 69 227 69 q 270 69 305 88 q 340 107 371 134 z m 371 58 q 360 50 341 35 q 322 20 305 11 q 280 -1 258 -8 q 235 -15 194 -15 q 160 -15 130 -2 q 100 10 77 33 q 55 56 42 89 q 28 122 28 158 q 28 215 52 255 q 76 294 128 318 q 174 339 236 347 q 299 355 371 359 l 371 376 q 371 409 361 428 q 352 448 334 459 q 316 470 291 474 q 266 478 239 478 q 207 478 164 468 q 121 458 78 440 l 73 440 l 73 534 q 98 541 146 550 q 193 559 239 559 q 295 559 334 550 q 373 541 403 518 q 433 496 448 460 q 462 424 462 373 l 462 0 l 371 0 z"},"L":{"x_min":0,"x_max":498,"ha":498,"o":"m 495 0 l 74 0 l 74 727 l 170 727 l 170 86 l 495 86 z"},"3":{"x_min":0,"x_max":546,"ha":546,"o":"m 250 658 q 223 658 197 651 q 170 645 145 635 q 122 625 104 614 q 87 604 73 594 l 67 594 l 67 697 q 99 714 154 728 q 208 742 257 742 q 307 742 344 732 q 380 722 410 701 q 442 678 459 645 q 475 611 475 567 q 475 507 436 461 q 396 416 341 404 l 341 397 q 364 393 390 382 q 416 371 438 350 q 461 329 475 296 q 489 263 489 216 q 489 167 472 125 q 456 84 425 52 q 393 19 348 2 q 303 -15 246 -15 q 191 -15 138 -2 q 84 11 47 30 l 47 133 l 54 133 q 85 110 137 90 q 188 69 240 69 q 270 69 300 79 q 330 88 350 110 q 370 131 380 157 q 390 183 390 223 q 390 262 379 288 q 367 313 347 328 q 326 342 298 348 q 270 354 237 354 l 196 354 l 196 435 l 228 435 q 294 435 335 466 q 376 497 376 557 q 376 584 366 604 q 355 624 338 635 q 320 648 297 653 q 275 658 250 658 z"},";":{"x_min":0,"x_max":354,"ha":354,"o":"m 235 406 l 119 406 l 119 545 l 235 545 z m 268 139 l 131 -181 l 60 -181 l 146 139 z"},"J":{"x_min":0,"x_max":417,"ha":417,"o":"m 348 189 q 348 93 289 42 q 231 -10 133 -10 q 109 -10 70 -6 q 31 -2 4 4 l 4 96 l 10 96 q 30 89 59 81 q 89 73 120 73 q 165 73 191 83 q 218 93 230 112 q 244 132 247 160 q 251 188 251 226 l 251 650 l 97 650 l 97 727 l 348 727 z"},"V":{"x_min":0,"x_max":597,"ha":597,"o":"m 601 727 l 351 0 l 246 0 l -4 727 l 100 727 l 301 124 l 502 727 z"},"\"":{"x_min":0,"x_max":401,"ha":401,"o":"m 346 760 l 325 477 l 260 477 l 239 760 z m 162 760 l 141 477 l 77 477 l 56 760 z"},"7":{"x_min":0,"x_max":546,"ha":546,"o":"m 510 618 l 195 0 l 91 0 l 424 642 l 48 642 l 48 727 l 510 727 z"},"S":{"x_min":0,"x_max":557,"ha":557,"o":"m 276 -13 q 197 -13 142 3 q 86 20 38 43 l 38 165 l 44 165 q 92 120 153 95 q 213 70 270 70 q 350 70 391 104 q 432 137 432 192 q 432 235 410 263 q 389 290 342 303 q 308 313 280 319 q 252 326 210 336 q 173 346 143 361 q 113 376 90 401 q 68 425 55 457 q 43 490 43 532 q 43 621 112 680 q 181 740 288 740 q 349 740 403 728 q 458 716 504 693 l 504 578 l 497 578 q 462 609 408 633 q 354 657 294 657 q 227 657 185 625 q 144 594 144 542 q 144 496 168 469 q 192 441 239 429 q 270 420 314 410 q 358 399 388 391 q 463 368 498 321 q 532 275 532 207 q 532 165 515 123 q 498 82 466 53 q 431 21 387 4 q 343 -13 276 -13 z"},"}":{"x_min":0,"x_max":480,"ha":480,"o":"m 451 246 l 441 246 q 398 246 369 234 q 340 221 322 197 q 304 172 297 138 q 291 104 291 70 l 291 -2 q 291 -95 241 -143 q 192 -191 104 -191 l 48 -191 l 48 -124 l 87 -124 q 116 -124 137 -118 q 158 -112 173 -98 q 188 -83 196 -58 q 204 -32 204 6 l 204 91 q 204 131 213 159 q 222 186 240 210 q 256 231 282 249 q 308 267 336 278 l 336 290 q 308 301 282 319 q 256 337 240 358 q 222 382 213 410 q 204 437 204 477 l 204 562 q 204 600 196 626 q 188 652 173 667 q 158 681 137 687 q 116 692 87 692 l 48 692 l 48 760 l 104 760 q 192 760 241 712 q 291 664 291 571 l 291 498 q 291 464 297 430 q 304 396 322 372 q 340 347 369 335 q 398 322 441 322 l 451 322 z"},"Z":{"x_min":0,"x_max":559,"ha":559,"o":"m 537 0 l 29 0 l 29 90 l 418 641 l 47 641 l 47 727 l 527 727 l 527 640 l 134 86 l 537 86 z"},"x":{"x_min":0,"x_max":495,"ha":495,"o":"m 490 0 l 377 0 l 245 206 l 109 0 l 5 0 l 194 271 l 7 545 l 120 545 l 251 341 l 386 545 l 490 545 l 302 277 z"},")":{"x_min":0,"x_max":383,"ha":383,"o":"m 330 279 q 330 128 282 14 q 233 -100 148 -201 l 36 -201 l 36 -196 q 74 -163 112 -114 q 150 -64 178 -5 q 208 58 226 128 q 244 198 244 279 q 244 360 226 432 q 208 503 178 564 q 148 625 111 673 q 73 721 36 755 l 36 760 l 148 760 q 233 659 281 545 q 330 431 330 279 z"},"&":{"x_min":0,"x_max":674,"ha":674,"o":"m 706 0 l 581 0 l 481 104 q 431 41 379 13 q 326 -15 260 -15 q 161 -15 97 44 q 33 104 33 200 q 33 242 44 274 q 56 307 76 333 q 95 359 120 378 q 145 397 167 412 q 118 445 94 481 q 69 518 69 574 q 69 608 83 638 q 97 667 120 690 q 143 713 180 728 q 218 742 262 742 q 343 742 395 699 q 446 657 446 591 q 446 567 440 542 q 434 516 417 492 q 401 468 375 447 q 349 426 306 411 l 478 234 q 484 274 486 321 q 487 368 487 444 l 583 444 l 583 397 q 583 350 571 291 q 559 232 531 180 z m 438 147 l 214 377 q 202 369 189 358 q 177 348 163 326 q 151 309 142 281 q 133 254 133 223 q 133 154 174 109 q 215 64 286 64 q 333 64 370 84 q 408 104 438 147 z m 260 445 q 287 455 305 470 q 323 486 333 504 q 341 521 346 541 q 350 560 350 582 q 350 629 323 655 q 295 681 258 681 q 215 681 190 651 q 165 622 165 578 q 165 559 169 545 q 172 531 184 512 q 194 497 213 480 q 231 463 260 445 z"},"_":{"x_min":0,"x_max":546,"ha":546,"o":"m 554 -146 l -8 -146 l -8 -83 l 554 -83 z"},"v":{"x_min":0,"x_max":498,"ha":498,"o":"m 495 545 l 290 0 l 207 0 l 3 545 l 102 545 l 251 125 l 399 545 z"},"O":{"x_min":0,"x_max":708,"ha":708,"o":"m 588 644 q 629 596 652 525 q 675 454 675 363 q 675 275 653 204 q 630 132 588 84 q 543 33 484 9 q 425 -15 354 -15 q 280 -15 221 10 q 162 35 119 84 q 77 132 55 203 q 32 274 32 363 q 32 455 55 524 q 78 594 120 644 q 162 692 221 717 q 280 742 354 742 q 428 742 487 716 q 547 690 588 644 z m 575 363 q 575 436 559 491 q 543 547 515 583 q 486 621 446 640 q 405 659 354 659 q 301 659 262 640 q 223 622 192 583 q 164 546 148 490 q 133 434 133 363 q 133 220 193 144 q 253 68 354 68 q 455 68 515 144 q 575 220 575 363 z"},"(":{"x_min":0,"x_max":383,"ha":383,"o":"m 347 -201 l 235 -201 q 150 -100 101 13 q 53 125 53 279 q 53 430 101 544 q 149 659 235 760 l 347 760 l 347 755 q 307 719 271 673 q 235 626 205 564 q 175 504 157 432 q 139 359 139 279 q 139 196 156 126 q 174 57 205 -5 q 234 -65 271 -114 q 309 -163 347 -196 z"},"C":{"x_min":0,"x_max":601,"ha":601,"o":"m 358 -13 q 287 -13 227 11 q 167 35 124 82 q 80 129 56 200 q 32 271 32 363 q 32 454 55 522 q 79 590 123 640 q 167 689 226 715 q 286 740 359 740 q 396 740 428 735 q 460 729 487 721 q 511 714 535 703 q 560 692 584 679 l 584 562 l 576 562 q 563 574 543 590 q 523 607 495 623 q 467 638 434 648 q 401 658 358 658 q 312 658 271 639 q 229 620 198 583 q 167 545 150 489 q 133 433 133 363 q 133 288 151 234 q 169 180 200 143 q 230 107 271 89 q 312 70 358 70 q 400 70 436 81 q 472 91 500 106 q 526 122 546 137 q 565 153 577 165 l 584 165 l 584 49 q 560 38 539 28 q 518 18 487 8 q 456 -2 428 -8 q 401 -13 358 -13 z"},"W":{"x_min":0,"x_max":902,"ha":902,"o":"m 889 727 l 707 0 l 598 0 l 450 604 l 305 0 l 199 0 l 13 727 l 112 727 l 258 123 l 404 727 l 502 727 l 649 117 l 794 727 z"},"A":{"x_min":0,"x_max":600,"ha":600,"o":"m -5 0 l 240 727 l 359 727 l 604 0 l 502 0 l 437 203 l 159 203 l 93 0 z m 410 286 l 297 628 l 186 286 z"},"f":{"x_min":0,"x_max":318,"ha":318,"o":"m 354 672 l 349 672 q 336 676 313 680 q 291 685 272 685 q 214 685 190 658 q 165 632 165 564 l 165 545 l 317 545 l 317 469 l 168 469 l 168 0 l 76 0 l 76 469 l 14 469 l 14 545 l 76 545 l 76 563 q 76 662 124 713 q 171 765 259 765 q 285 765 309 762 q 333 759 354 756 z"},"Q":{"x_min":0,"x_max":708,"ha":708,"o":"m 678 -178 q 651 -185 622 -188 q 593 -191 564 -191 q 483 -191 432 -146 q 381 -100 376 -15 q 370 -15 364 -15 q 358 -15 354 -15 q 280 -15 220 10 q 161 36 119 84 q 77 132 55 203 q 32 274 32 363 q 32 455 55 524 q 78 594 120 644 q 162 692 221 717 q 280 742 354 742 q 428 742 487 716 q 547 690 588 644 q 629 596 652 525 q 675 454 675 363 q 675 222 620 130 q 565 39 469 6 q 472 -21 479 -43 q 486 -65 497 -78 q 510 -93 529 -100 q 548 -107 581 -107 q 600 -107 626 -101 q 653 -95 665 -90 l 678 -90 z m 575 363 q 575 436 559 491 q 543 547 515 583 q 486 621 446 640 q 405 659 354 659 q 301 659 262 640 q 223 622 192 583 q 164 546 148 490 q 133 434 133 363 q 133 220 193 144 q 253 68 354 68 q 455 68 515 144 q 575 220 575 363 z"},"w":{"x_min":0,"x_max":742,"ha":742,"o":"m 728 545 l 589 0 l 504 0 l 371 420 l 239 0 l 154 0 l 15 545 l 110 545 l 207 123 l 336 545 l 412 545 l 544 123 l 635 545 z"},"-":{"x_min":0,"x_max":363,"ha":363,"o":"m 319 274 l 44 274 l 44 362 l 319 362 z"},"E":{"x_min":0,"x_max":561,"ha":561,"o":"m 74 0 l 74 727 l 528 727 l 528 641 l 170 641 l 170 442 l 504 442 l 504 356 l 170 356 l 170 86 l 528 86 l 528 0 z"},"s":{"x_min":0,"x_max":446,"ha":446,"o":"m 214 -13 q 159 -13 112 1 q 64 16 33 33 l 33 136 l 38 136 q 49 126 65 115 q 81 104 107 92 q 131 81 159 73 q 187 64 217 64 q 239 64 264 70 q 289 75 301 83 q 318 94 326 106 q 333 119 333 145 q 333 177 316 194 q 298 210 252 222 q 235 226 207 232 q 178 238 154 245 q 92 263 63 301 q 35 338 35 392 q 35 466 91 512 q 146 559 239 559 q 284 559 330 547 q 376 536 407 519 l 407 421 l 402 421 q 367 449 324 465 q 281 481 237 481 q 191 481 160 462 q 129 443 129 404 q 129 370 147 353 q 166 336 207 326 q 228 320 253 315 q 278 310 306 303 q 366 288 397 253 q 427 218 427 157 q 427 122 413 91 q 399 59 373 37 q 343 12 306 0 q 270 -13 214 -13 z"},">":{"x_min":0,"x_max":728,"ha":728,"o":"m 629 289 l 105 39 l 105 125 l 512 318 l 105 511 l 105 598 l 629 348 z"},"l":{"x_min":0,"x_max":229,"ha":229,"o":"m 160 0 l 68 0 l 68 760 l 160 760 z"},"8":{"x_min":0,"x_max":546,"ha":546,"o":"m 396 558 q 396 606 363 639 q 331 672 272 672 q 219 672 185 643 q 151 613 151 563 q 151 527 169 502 q 186 478 221 458 q 236 449 267 435 q 298 420 323 412 q 366 444 381 479 q 396 513 396 558 z m 410 193 q 410 238 392 265 q 375 291 324 318 q 308 328 280 338 q 252 349 218 364 q 177 337 156 298 q 134 258 134 208 q 134 142 174 99 q 214 56 274 56 q 335 56 373 93 q 410 130 410 193 z m 273 -17 q 219 -17 174 0 q 130 16 99 46 q 68 75 52 115 q 36 156 36 201 q 36 260 68 309 q 99 359 159 388 l 159 391 q 105 422 80 459 q 54 497 54 552 q 54 634 116 689 q 178 744 273 744 q 372 744 432 692 q 492 640 492 559 q 492 510 463 462 q 435 414 381 387 l 381 384 q 444 354 477 312 q 510 270 510 203 q 510 109 442 46 q 375 -17 273 -17 z"},"\\":{"x_min":0,"x_max":382,"ha":382,"o":"m 393 -158 l 310 -158 l 25 760 l 109 760 z"},"e":{"x_min":0,"x_max":526,"ha":526,"o":"m 303 -13 q 173 -13 101 61 q 29 134 29 270 q 29 403 99 482 q 168 561 281 561 q 332 561 371 546 q 410 531 439 500 q 469 469 484 424 q 500 378 500 313 l 500 263 l 122 263 q 122 168 170 118 q 218 67 302 67 q 333 67 362 74 q 391 81 414 92 q 439 103 456 114 q 473 124 484 133 l 490 133 l 490 33 q 474 27 450 17 q 426 8 407 2 q 380 -5 358 -9 q 336 -13 303 -13 z m 411 333 q 410 371 402 397 q 394 424 379 443 q 363 463 338 474 q 313 485 276 485 q 239 485 214 474 q 188 463 167 442 q 146 420 136 394 q 125 368 122 333 z"},"b":{"x_min":0,"x_max":553,"ha":553,"o":"m 429 274 q 429 372 399 423 q 370 473 304 473 q 266 473 228 456 q 189 438 158 411 l 158 99 q 193 82 220 74 q 247 67 279 67 q 349 67 389 117 q 429 167 429 274 z m 524 282 q 524 148 459 66 q 394 -15 296 -15 q 252 -15 220 -4 q 189 7 158 25 l 152 0 l 66 0 l 66 760 l 158 760 l 158 488 q 193 520 233 540 q 274 561 325 561 q 417 561 471 487 q 524 413 524 282 z"},"%":{"x_min":0,"x_max":977,"ha":977,"o":"m 394 525 q 394 416 350 363 q 306 310 222 310 q 137 310 94 363 q 50 417 50 525 q 50 634 94 688 q 139 741 222 741 q 307 741 351 687 q 394 633 394 525 z m 719 727 l 338 0 l 258 0 l 639 727 z m 926 202 q 926 92 882 39 q 838 -14 754 -14 q 669 -14 626 40 q 582 93 582 201 q 582 311 626 364 q 671 417 754 417 q 839 417 883 363 q 926 310 926 202 z m 307 525 q 307 600 290 638 q 272 676 222 676 q 172 676 154 637 q 137 599 137 525 q 137 452 153 413 q 170 375 222 375 q 272 375 290 413 q 307 452 307 525 z m 839 202 q 839 276 822 314 q 805 352 754 352 q 704 352 687 313 q 669 275 669 201 q 669 128 686 89 q 702 51 754 51 q 805 51 822 89 q 839 128 839 202 z"},"m":{"x_min":0,"x_max":840,"ha":840,"o":"m 686 0 l 686 315 q 686 353 683 385 q 680 417 670 435 q 661 455 643 464 q 625 473 594 473 q 565 473 533 456 q 500 438 466 406 q 466 397 467 386 q 468 375 468 359 l 468 0 l 376 0 l 376 315 q 376 353 373 385 q 370 417 361 435 q 351 455 333 464 q 315 473 284 473 q 254 473 222 455 q 189 436 158 407 l 158 0 l 66 0 l 66 545 l 158 545 l 158 485 q 194 521 230 541 q 265 561 308 561 q 356 561 393 539 q 431 517 450 466 q 492 513 531 537 q 571 561 617 561 q 652 561 681 550 q 710 539 731 514 q 753 489 765 452 q 777 415 777 359 l 777 0 z"},"#":{"x_min":0,"x_max":728,"ha":728,"o":"m 658 455 l 515 455 l 470 271 l 601 271 l 601 206 l 453 206 l 402 0 l 339 0 l 390 206 l 258 206 l 207 0 l 144 0 l 195 206 l 69 206 l 69 271 l 212 271 l 257 455 l 126 455 l 126 521 l 274 521 l 326 727 l 389 727 l 337 521 l 469 521 l 521 727 l 583 727 l 532 521 l 658 521 z m 454 456 l 320 456 l 274 271 l 408 271 z"},",":{"x_min":0,"x_max":303,"ha":303,"o":"m 244 139 l 107 -181 l 36 -181 l 122 139 z"},"n":{"x_min":0,"x_max":558,"ha":558,"o":"m 495 0 l 403 0 l 403 311 q 403 348 400 381 q 396 413 386 433 q 375 453 354 463 q 334 473 300 473 q 266 473 229 455 q 193 437 158 407 l 158 0 l 66 0 l 66 545 l 158 545 l 158 485 q 199 521 239 541 q 279 561 324 561 q 404 561 450 508 q 495 455 495 354 z"},"h":{"x_min":0,"x_max":558,"ha":558,"o":"m 495 0 l 403 0 l 403 311 q 403 348 400 381 q 396 413 386 433 q 375 453 354 463 q 334 473 300 473 q 266 473 229 455 q 193 437 158 407 l 158 0 l 66 0 l 66 760 l 158 760 l 158 485 q 199 521 239 541 q 279 561 324 561 q 404 561 450 508 q 495 455 495 354 z"},"z":{"x_min":0,"x_max":444,"ha":444,"o":"m 425 0 l 24 0 l 24 68 l 309 470 l 36 470 l 36 545 l 419 545 l 419 480 l 133 77 l 425 77 z"},"B":{"x_min":0,"x_max":589,"ha":589,"o":"m 567 223 q 567 169 546 127 q 526 86 491 59 q 450 27 403 13 q 356 0 282 0 l 74 0 l 74 727 l 267 727 q 344 727 383 722 q 422 717 458 698 q 497 677 515 643 q 533 609 533 563 q 533 512 506 471 q 479 431 431 408 l 431 404 q 496 386 531 340 q 567 293 567 223 z m 432 549 q 432 576 423 595 q 415 614 395 625 q 372 639 343 642 q 314 645 263 645 l 170 645 l 170 432 l 280 432 q 326 432 347 436 q 369 441 392 456 q 414 470 423 493 q 432 516 432 549 z m 466 219 q 466 260 455 287 q 443 313 407 332 q 384 344 357 348 q 330 351 280 351 l 170 351 l 170 83 l 249 83 q 312 83 349 88 q 386 94 414 113 q 441 132 454 156 q 466 181 466 219 z"},"K":{"x_min":0,"x_max":588,"ha":588,"o":"m 604 0 l 478 0 l 213 338 l 170 291 l 170 0 l 74 0 l 74 727 l 170 727 l 170 393 l 468 727 l 586 727 l 285 402 z"},"R":{"x_min":0,"x_max":621,"ha":621,"o":"m 637 0 l 511 0 l 281 289 l 170 289 l 170 0 l 74 0 l 74 727 l 261 727 q 324 727 366 720 q 408 713 446 688 q 484 664 507 625 q 529 587 529 530 q 529 450 488 396 q 448 342 378 316 z m 428 522 q 428 554 417 579 q 405 604 382 619 q 361 633 334 638 q 307 644 266 644 l 170 644 l 170 370 l 255 370 q 297 370 330 377 q 363 384 387 407 q 408 428 418 456 q 428 484 428 522 z"},"T":{"x_min":0,"x_max":584,"ha":584,"o":"m 244 0 l 244 641 l 0 641 l 0 727 l 584 727 l 584 641 l 340 641 l 340 0 z"},"P":{"x_min":0,"x_max":551,"ha":551,"o":"m 533 508 q 533 460 516 418 q 499 376 469 346 q 432 309 381 290 q 330 271 252 271 l 170 271 l 170 0 l 74 0 l 74 727 l 256 727 q 321 727 366 716 q 412 706 446 682 q 487 654 510 611 q 533 568 533 508 z m 432 505 q 432 543 419 571 q 406 599 380 616 q 357 631 326 638 q 296 644 250 644 l 170 644 l 170 354 l 236 354 q 295 354 331 363 q 367 373 391 397 q 413 419 422 445 q 432 471 432 505 z"},"|":{"x_min":0,"x_max":382,"ha":382,"o":"m 232 -191 l 150 -191 l 150 760 l 232 760 z"},"t":{"x_min":0,"x_max":334,"ha":334,"o":"m 231 -11 q 156 -11 114 32 q 72 75 72 167 l 72 469 l 10 469 l 10 545 l 72 545 l 72 702 l 164 702 l 164 545 l 333 545 l 333 469 l 164 469 l 164 210 q 164 168 166 146 q 167 124 177 104 q 185 87 204 78 q 222 70 254 70 q 276 70 297 76 q 318 83 328 87 l 333 87 l 333 5 q 307 -2 281 -7 q 254 -11 231 -11 z"},"M":{"x_min":0,"x_max":771,"ha":771,"o":"m 697 0 l 600 0 l 600 626 l 411 200 l 352 200 l 164 626 l 164 0 l 74 0 l 74 727 l 206 727 l 387 322 l 562 727 l 697 727 z"},"g":{"x_min":0,"x_max":553,"ha":553,"o":"m 395 148 l 395 447 q 360 464 331 471 q 302 478 273 478 q 204 478 164 427 q 124 375 124 280 q 124 189 154 142 q 185 94 253 94 q 289 94 326 108 q 364 123 395 148 z m 86 -87 q 95 -91 113 -98 q 131 -104 154 -110 q 180 -117 201 -121 q 223 -125 248 -125 q 291 -125 320 -113 q 350 -102 366 -82 q 382 -62 388 -36 q 395 -9 395 24 l 395 72 q 357 40 322 25 q 286 9 232 9 q 139 9 84 79 q 29 148 29 278 q 29 346 48 398 q 67 451 99 487 q 130 522 172 542 q 214 561 259 561 q 301 561 332 551 q 363 541 395 522 l 400 545 l 486 545 l 486 62 q 486 -77 426 -142 q 365 -207 241 -207 q 201 -207 159 -200 q 117 -194 81 -183 l 81 -87 z"},"j":{"x_min":0,"x_max":282,"ha":282,"o":"m 215 -16 q 215 -109 165 -158 q 115 -207 27 -207 q 12 -207 -7 -205 q -25 -204 -44 -201 l -44 -119 l -39 -119 q -28 -121 -15 -123 q -2 -125 10 -125 q 46 -125 70 -116 q 94 -107 105 -88 q 116 -70 120 -43 q 124 -17 124 22 l 124 469 l 25 469 l 25 545 l 215 545 z m 216 637 l 111 637 l 111 732 l 216 732 z"},"i":{"x_min":0,"x_max":229,"ha":229,"o":"m 160 0 l 68 0 l 68 545 l 160 545 z m 167 637 l 62 637 l 62 732 l 167 732 z"},"y":{"x_min":0,"x_max":498,"ha":498,"o":"m 495 545 l 202 -201 l 104 -201 l 201 26 l 3 545 l 102 545 l 251 142 l 399 545 z"},"@":{"x_min":0,"x_max":909,"ha":909,"o":"m 849 324 q 849 256 831 193 q 812 129 777 77 l 572 77 l 560 133 q 527 105 499 89 q 472 73 424 73 q 349 73 301 133 q 253 193 253 308 q 253 423 312 487 q 371 551 447 551 q 482 551 507 542 q 533 533 559 519 l 559 542 l 636 542 l 636 131 l 747 131 q 766 166 774 221 q 782 276 782 321 q 782 480 700 578 q 619 675 467 675 q 322 675 228 570 q 134 465 134 315 q 134 154 226 54 q 317 -46 464 -46 q 504 -46 548 -41 q 591 -35 630 -23 l 630 -93 q 589 -103 547 -106 q 505 -110 464 -110 q 291 -110 178 8 q 64 127 64 316 q 64 495 181 618 q 298 741 466 741 q 646 741 748 625 q 849 509 849 324 z m 558 199 l 558 452 q 530 466 507 472 q 484 479 459 479 q 404 479 371 437 q 337 396 337 310 q 337 231 362 190 q 388 148 443 148 q 473 148 502 163 q 531 177 558 199 z"},".":{"x_min":0,"x_max":303,"ha":303,"o":"m 209 0 l 93 0 l 93 139 l 209 139 z"},"p":{"x_min":0,"x_max":553,"ha":553,"o":"m 524 287 q 524 151 459 70 q 394 -11 294 -11 q 253 -11 222 -1 q 191 8 158 27 l 158 -201 l 66 -201 l 66 545 l 158 545 l 158 488 q 192 519 234 540 q 276 561 325 561 q 419 561 471 486 q 524 412 524 287 z m 429 277 q 429 370 399 422 q 370 473 303 473 q 264 473 227 456 q 191 438 158 411 l 158 102 q 194 84 220 78 q 246 72 279 72 q 350 72 390 124 q 429 176 429 277 z"},"X":{"x_min":0,"x_max":581,"ha":581,"o":"m 577 0 l 466 0 l 289 291 l 108 0 l 4 0 l 235 364 l 11 727 l 121 727 l 295 441 l 471 727 l 576 727 l 349 369 z"},"*":{"x_min":0,"x_max":546,"ha":546,"o":"m 492 433 l 460 379 l 300 485 l 304 308 l 243 308 l 246 485 l 87 379 l 55 433 l 228 534 l 55 635 l 87 688 l 246 582 l 243 760 l 304 760 l 300 582 l 460 688 l 492 634 l 319 534 z"},"Y":{"x_min":0,"x_max":576,"ha":576,"o":"m 583 727 l 337 322 l 337 0 l 240 0 l 240 312 l -5 727 l 102 727 l 290 406 l 480 727 z"},"c":{"x_min":0,"x_max":461,"ha":461,"o":"m 283 -12 q 227 -12 180 5 q 133 22 100 58 q 66 93 47 146 q 29 200 29 272 q 29 344 48 396 q 67 448 100 484 q 132 520 180 539 q 228 558 283 558 q 328 558 370 545 q 412 533 444 516 l 444 413 l 439 413 q 429 421 414 432 q 398 443 376 454 q 357 464 332 471 q 306 479 282 479 q 210 479 167 425 q 124 371 124 272 q 124 175 166 121 q 208 67 282 67 q 327 67 367 86 q 408 104 439 134 l 444 134 l 444 31 q 431 24 410 15 q 390 6 373 2 q 350 -5 331 -9 q 312 -12 283 -12 z"},"!":{"x_min":0,"x_max":332,"ha":332,"o":"m 221 727 l 207 200 l 126 200 l 111 727 z m 216 0 l 116 0 l 116 103 l 216 103 z"},"/":{"x_min":0,"x_max":382,"ha":382,"o":"m 355 760 l 71 -158 l -12 -158 l 271 760 z"},"[":{"x_min":0,"x_max":383,"ha":383,"o":"m 335 -191 l 81 -191 l 81 760 l 335 760 l 335 690 l 167 690 l 167 -122 l 335 -122 z"},"6":{"x_min":0,"x_max":546,"ha":546,"o":"m 513 236 q 513 180 495 132 q 476 85 445 53 q 412 20 372 2 q 331 -15 282 -15 q 233 -15 193 1 q 152 18 122 51 q 84 90 63 156 q 42 223 42 319 q 42 414 61 490 q 81 567 121 624 q 161 679 223 710 q 286 741 368 741 q 392 741 413 738 q 434 736 450 730 l 450 637 l 446 637 q 433 645 408 651 q 383 657 354 657 q 264 657 208 595 q 152 534 142 414 q 176 438 213 451 q 250 464 293 464 q 335 464 367 456 q 399 447 434 421 q 474 391 494 345 q 513 298 513 236 z m 414 232 q 414 277 402 307 q 391 337 364 359 q 345 375 321 379 q 297 384 271 384 q 237 384 205 374 q 173 364 142 344 q 141 333 140 323 q 140 313 140 298 q 140 223 155 176 q 169 130 191 106 q 212 83 235 74 q 257 64 283 64 q 341 64 378 106 q 414 148 414 232 z"},"r":{"x_min":0,"x_max":360,"ha":360,"o":"m 355 447 l 351 447 q 340 450 329 450 q 317 451 301 451 q 264 451 228 435 q 191 419 158 387 l 158 0 l 66 0 l 66 545 l 158 545 l 158 464 q 208 509 246 527 q 283 545 318 545 q 333 545 340 545 q 347 544 355 542 z"},"2":{"x_min":0,"x_max":546,"ha":546,"o":"m 502 0 l 53 0 l 53 102 q 102 148 145 190 q 188 232 229 277 q 312 369 342 424 q 372 479 372 537 q 372 567 363 590 q 353 613 336 628 q 319 643 297 650 q 274 658 248 658 q 222 658 195 651 q 168 645 144 635 q 124 626 104 615 q 85 603 74 595 l 68 595 l 68 698 q 99 713 153 728 q 207 742 255 742 q 356 742 414 688 q 472 634 472 542 q 472 500 462 463 q 452 427 434 396 q 416 365 391 333 q 365 302 337 272 q 291 222 235 168 q 178 115 145 83 l 502 83 z"},"{":{"x_min":0,"x_max":480,"ha":480,"o":"m 433 -191 l 376 -191 q 289 -191 239 -143 q 189 -95 189 -2 l 189 70 q 189 104 183 138 q 177 172 159 197 q 141 221 112 234 q 83 246 40 246 l 29 246 l 29 322 l 40 322 q 83 322 112 335 q 141 347 159 372 q 177 396 183 430 q 189 464 189 498 l 189 571 q 189 664 239 712 q 289 760 376 760 l 433 760 l 433 692 l 394 692 q 365 692 344 687 q 323 681 308 667 q 292 652 284 626 q 277 600 277 562 l 277 477 q 277 437 268 410 q 258 382 240 358 q 224 337 198 319 q 172 301 145 290 l 145 278 q 172 267 198 249 q 224 231 240 210 q 258 186 268 159 q 277 131 277 91 l 277 6 q 277 -32 284 -58 q 292 -83 308 -98 q 322 -112 344 -118 q 365 -124 394 -124 l 433 -124 z"},"9":{"x_min":0,"x_max":546,"ha":546,"o":"m 406 428 q 406 502 393 549 q 379 596 355 621 q 333 645 312 653 q 290 662 263 662 q 203 662 167 619 q 132 576 132 495 q 132 449 144 419 q 155 389 182 368 q 200 353 224 347 q 247 342 274 342 q 305 342 341 353 q 377 364 404 382 q 405 390 406 402 q 406 414 406 428 z m 33 491 q 33 547 51 593 q 69 640 101 673 q 131 706 175 724 q 219 742 264 742 q 314 742 355 725 q 396 708 425 676 q 463 636 484 571 q 504 506 504 407 q 504 317 484 236 q 464 155 424 102 q 382 45 323 16 q 265 -14 178 -14 q 159 -14 137 -12 q 115 -10 96 -4 l 96 89 l 101 89 q 113 83 139 76 q 165 70 191 70 q 287 70 342 133 q 396 196 404 313 q 365 287 329 274 q 294 262 252 262 q 212 262 179 271 q 146 280 112 305 q 73 335 53 381 q 33 426 33 491 z"}," ":{"x_min":0,"x_max":312,"ha":312,"o":""},"I":{"x_min":0,"x_max":373,"ha":373,"o":"m 328 0 l 45 0 l 45 74 l 138 74 l 138 653 l 45 653 l 45 727 l 328 727 l 328 653 l 235 653 l 235 74 l 328 74 z"},"H":{"x_min":0,"x_max":675,"ha":675,"o":"m 602 0 l 505 0 l 505 356 l 170 356 l 170 0 l 74 0 l 74 727 l 170 727 l 170 442 l 505 442 l 505 727 l 602 727 z"},"4":{"x_min":0,"x_max":546,"ha":546,"o":"m 521 250 l 435 250 l 435 0 l 341 0 l 341 250 l 20 250 l 20 353 l 345 727 l 435 727 l 435 328 l 521 328 z m 341 328 l 341 612 l 96 328 z"},"~":{"x_min":0,"x_max":728,"ha":728,"o":"m 662 453 q 661 403 652 357 q 643 311 623 274 q 603 238 573 216 q 543 193 495 193 q 467 193 445 201 q 423 208 406 221 q 389 233 373 250 q 357 267 345 282 q 332 298 319 314 q 307 331 294 344 q 281 357 267 366 q 253 374 235 374 q 210 374 194 361 q 178 348 167 323 q 157 298 153 264 q 149 230 147 193 l 65 193 q 66 244 76 290 q 85 336 104 372 q 124 409 156 430 q 188 452 232 452 q 262 452 284 444 q 306 437 323 424 q 340 412 355 396 q 369 381 383 364 q 394 351 408 332 q 423 312 434 302 q 448 287 462 279 q 477 271 493 271 q 517 271 534 285 q 551 299 560 322 q 570 347 574 380 q 579 413 580 453 z"},"D":{"x_min":0,"x_max":678,"ha":678,"o":"m 647 363 q 647 263 607 183 q 566 103 499 58 q 443 23 386 12 q 330 0 241 0 l 74 0 l 74 727 l 239 727 q 342 727 400 712 q 458 696 500 669 q 570 623 608 546 q 647 469 647 363 z m 546 364 q 546 448 519 508 q 491 567 436 600 q 397 624 354 634 q 310 644 244 644 l 170 644 l 170 83 l 244 83 q 309 83 357 93 q 405 104 445 131 q 496 166 521 222 q 546 279 546 364 z"},"^":{"x_min":0,"x_max":728,"ha":728,"o":"m 663 334 l 566 334 l 363 639 l 161 333 l 65 333 l 333 727 l 395 727 z"},"0":{"x_min":0,"x_max":546,"ha":546,"o":"m 505 364 q 505 168 448 76 q 392 -15 273 -15 q 153 -15 97 78 q 41 171 41 363 q 41 560 97 651 q 154 742 273 742 q 393 742 449 647 q 505 553 505 364 z m 380 142 q 395 178 400 233 q 406 289 406 364 q 406 438 400 494 q 395 549 380 585 q 365 623 340 642 q 314 661 273 661 q 232 661 206 642 q 180 623 165 584 q 150 547 145 491 q 140 434 140 363 q 140 287 144 235 q 149 184 165 144 q 179 106 205 86 q 231 65 273 65 q 313 65 340 85 q 366 104 380 142 z"},"F":{"x_min":0,"x_max":521,"ha":521,"o":"m 509 641 l 170 641 l 170 436 l 495 436 l 495 350 l 170 350 l 170 0 l 74 0 l 74 727 l 509 727 z"},"`":{"x_min":0,"x_max":546,"ha":546,"o":"m 327 636 l 254 636 l 121 818 l 240 818 z"},"k":{"x_min":0,"x_max":498,"ha":498,"o":"m 519 0 l 398 0 l 194 263 l 158 228 l 158 0 l 66 0 l 66 760 l 158 760 l 158 315 l 374 545 l 488 545 l 264 317 z"},"u":{"x_min":0,"x_max":558,"ha":558,"o":"m 491 0 l 399 0 l 399 61 q 357 23 319 4 q 281 -15 234 -15 q 198 -15 167 -3 q 135 8 112 34 q 88 59 75 98 q 62 136 62 191 l 62 545 l 154 545 l 154 235 q 154 191 157 163 q 161 134 172 113 q 183 92 202 82 q 222 72 258 72 q 292 72 330 91 q 368 110 399 138 l 399 545 l 491 545 z"},"]":{"x_min":0,"x_max":383,"ha":383,"o":"m 302 -191 l 48 -191 l 48 -122 l 216 -122 l 216 690 l 48 690 l 48 760 l 302 760 z"},"U":{"x_min":0,"x_max":656,"ha":656,"o":"m 328 -15 q 264 -15 216 2 q 168 19 134 52 q 96 90 81 143 q 65 196 65 273 l 65 727 l 162 727 l 162 273 q 162 223 168 189 q 174 154 193 127 q 212 98 246 83 q 279 67 328 67 q 373 67 408 83 q 443 98 463 127 q 481 155 488 188 q 494 222 494 271 l 494 727 l 591 727 l 591 273 q 591 198 575 144 q 560 89 521 52 q 487 18 441 1 q 395 -15 328 -15 z"},"o":{"x_min":0,"x_max":543,"ha":543,"o":"m 515 272 q 515 135 449 60 q 382 -15 272 -15 q 158 -15 93 62 q 28 140 28 272 q 28 409 95 485 q 162 561 272 561 q 382 561 449 485 q 515 410 515 272 z m 420 272 q 420 378 382 430 q 343 481 272 481 q 200 481 161 430 q 123 378 123 272 q 123 170 161 117 q 200 64 272 64 q 343 64 382 116 q 420 168 420 272 z"},"N":{"x_min":0,"x_max":667,"ha":667,"o":"m 594 0 l 485 0 l 164 627 l 164 0 l 74 0 l 74 727 l 211 727 l 503 151 l 503 727 l 594 727 z"},"+":{"x_min":0,"x_max":728,"ha":728,"o":"m 651 279 l 404 279 l 404 33 l 323 33 l 323 279 l 77 279 l 77 357 l 323 357 l 323 604 l 404 604 l 404 357 l 651 357 z"},"G":{"x_min":0,"x_max":667,"ha":667,"o":"m 378 -14 q 301 -14 237 9 q 173 33 127 81 q 81 129 57 200 q 32 271 32 364 q 32 452 57 522 q 82 591 127 641 q 172 688 237 714 q 302 740 379 740 q 416 740 449 735 q 483 729 514 720 q 538 713 568 700 q 598 687 617 678 l 617 561 l 608 561 q 590 577 571 592 q 552 606 517 623 q 487 637 449 647 q 411 657 367 657 q 262 657 198 578 q 133 499 133 367 q 133 294 150 239 q 167 185 199 146 q 230 109 275 89 q 319 69 374 69 q 415 69 456 75 q 496 81 524 93 l 524 281 l 356 281 l 356 366 l 620 366 l 620 48 q 601 40 570 27 q 539 15 512 7 q 477 -3 448 -9 q 419 -14 378 -14 z"},"q":{"x_min":0,"x_max":553,"ha":553,"o":"m 486 -201 l 395 -201 l 395 60 q 354 23 316 6 q 278 -11 232 -11 q 139 -11 84 64 q 29 138 29 271 q 29 341 48 395 q 67 449 99 486 q 129 521 171 541 q 213 561 259 561 q 301 561 332 551 q 362 541 395 522 l 400 545 l 486 545 z m 395 137 l 395 447 q 360 464 333 471 q 305 478 274 478 q 202 478 163 426 q 124 374 124 275 q 124 180 155 128 q 186 77 252 77 q 291 77 327 93 q 364 110 395 137 z"},"d":{"x_min":0,"x_max":553,"ha":553,"o":"m 486 0 l 395 0 l 395 56 q 373 38 357 26 q 342 14 321 4 q 301 -5 280 -10 q 259 -15 231 -15 q 187 -15 149 3 q 111 22 85 58 q 58 94 43 147 q 29 200 29 269 q 29 340 47 393 q 66 445 99 484 q 128 520 171 540 q 213 561 259 561 q 300 561 331 552 q 361 542 395 523 l 395 760 l 486 760 z m 395 133 l 395 447 q 360 464 333 470 q 306 477 274 477 q 204 477 164 424 q 124 371 124 271 q 124 174 154 123 q 185 72 253 72 q 289 72 326 89 q 362 105 395 133 z"},"1":{"x_min":0,"x_max":546,"ha":546,"o":"m 465 0 l 110 0 l 110 74 l 242 74 l 242 562 l 110 562 l 110 628 q 185 628 220 649 q 256 670 260 729 l 336 729 l 336 74 l 465 74 z"},"5":{"x_min":0,"x_max":546,"ha":546,"o":"m 494 231 q 494 179 477 134 q 460 89 430 56 q 399 23 353 4 q 308 -15 251 -15 q 199 -15 148 -4 q 98 8 61 26 l 61 129 l 67 129 q 79 121 100 111 q 121 100 146 91 q 175 81 199 75 q 223 69 252 69 q 282 69 310 80 q 337 90 357 114 q 375 135 385 164 q 395 193 395 232 q 395 271 384 295 q 374 320 354 336 q 333 355 302 363 q 271 370 234 370 q 194 370 154 364 q 114 358 90 353 l 90 727 l 489 727 l 489 642 l 185 642 l 185 448 q 202 450 219 451 q 236 452 250 452 q 306 452 345 443 q 383 434 419 407 q 455 379 474 338 q 494 297 494 231 z"}}}
